# xmcd
#
# Track frame offsets: 
#        150
#        16879
#        29348
#        33284
#        55732
#        59267
#        74044
#        78963
#        102134
#        124277
#        129597
#        144775
#        148615
#        166099
#        180170
#        204969
#        210124
#        224169
#        229463
#
# Disc length: 3266 seconds
#
# Revision: 0
# Processed by: cddbd v1.5.1PL0 Copyright (c) Steve Scherf et al.
# Submitted via: ExactAudioCopy v0.95a5
#
DISCID=070cc013
DTITLE=Jack Bowman - Obsidian [D2]
DYEAR=2002
DGENRE=Rock
TTITLE0=Mr. Green
TTITLE1=California Sun
TTITLE2=Better Made Plans
TTITLE3=All My Children
TTITLE4=They Are Asleep
TTITLE5=Breakwater
TTITLE6=Red Ocher
TTITLE7=Obsidian
TTITLE8=I Just Ain't No Good
TTITLE9=Home Trials
TTITLE10=Genocide
TTITLE11=Waiting for Hell to Fall
TTITLE12=Dark Earth
TTITLE13=Going Through the Motions
TTITLE14=Acid Rain
TTITLE15=Noise
TTITLE16=In Black and White
TTITLE17=Symbols
TTITLE18=As the Tide Rushes In
EXTD=
EXTT0=
EXTT1=
EXTT2=
EXTT3=
EXTT4=
EXTT5=
EXTT6=
EXTT7=
EXTT8=
EXTT9=
EXTT10=
EXTT11=
EXTT12=
EXTT13=
EXTT14=
EXTT15=
EXTT16=
EXTT17=
EXTT18=
PLAYORDER=
